<svg viewBox="0 0 423.333 423.333" height="1600" width="1600" xmlns="http://www.w3.org/2000/svg">
    <g style="opacity:1;fill:#787878;fill-opacity:1;stroke-width:.755906;stroke-miterlimit:4;stroke-dasharray:none">
        <g style="fill:#787878;fill-opacity:1">
            <path style="fill:#787878;fill-opacity:1;stroke:none;stroke-width:.559814px;stroke-linecap:butt;stroke-linejoin:miter;stroke-opacity:1" d="M2246.031 2340.191h-.047c-.98 3.068-1.738 6.4-1.883 10.196-.27 7.126.453 11.464-.367 16.08-.82 4.616-3.245 9.16-9.414 16.287-7.342 8.482-18.979 15.045-32.42 17.264a69.694 69.694 0 0 1-7.92 4.363c10.462 3.938 21.403 4.153 30.076 1.307 15.28-5.015 14.097-8.616 20.944-19.108 2.157-3.305 4.647-5.828 7.148-7.9 7.125 3.107 14.143 5.101 18.516 4.607 2.35-5.45-.057-11.771-4.059-17.746 3.282-10.196-1.698-20.406-12.73-24.016-2.878-.941-5.463-1.384-7.844-1.338zm8.276 14.971a4.167 4.245 48.68 0 1 3.197 1.397 4.167 4.245 48.68 0 1-.438 5.933 4.167 4.245 48.68 0 1-5.939-.326 4.167 4.245 48.68 0 1 .437-5.934 4.167 4.245 48.68 0 1 2.743-1.07zm-68.375 45.379c.127.075.257.14.384.215l.395-.15c-.26-.024-.519-.04-.78-.065z" transform="matrix(1.97262 0 0 1.97262 -4084.105 -4416.083)"/>
        </g>
    </g>
    <g style="opacity:1;fill:#ececec;fill-opacity:1;stroke:none;stroke-width:.755906;stroke-miterlimit:4;stroke-dasharray:none;stroke-opacity:1">
        <g style="opacity:1;fill:#ececec;fill-opacity:1">
            <path style="color:#000;font-style:normal;font-variant:normal;font-weight:400;font-stretch:normal;font-size:medium;line-height:normal;font-family:sans-serif;font-variant-ligatures:normal;font-variant-position:normal;font-variant-caps:normal;font-variant-numeric:normal;font-variant-alternates:normal;font-variant-east-asian:normal;font-feature-settings:normal;font-variation-settings:normal;text-indent:0;text-align:start;text-decoration:none;text-decoration-line:none;text-decoration-style:solid;text-decoration-color:#000;letter-spacing:normal;word-spacing:normal;text-transform:none;writing-mode:lr-tb;direction:ltr;text-orientation:mixed;dominant-baseline:auto;baseline-shift:baseline;text-anchor:start;white-space:normal;shape-padding:0;shape-margin:0;inline-size:0;clip-rule:nonzero;display:inline;overflow:visible;visibility:visible;isolation:auto;mix-blend-mode:normal;color-interpolation:sRGB;color-interpolation-filters:linearRGB;solid-color:#000;solid-opacity:1;vector-effect:none;fill:#ececec;fill-opacity:1;fill-rule:nonzero;stroke:none;stroke-width:3.02362;stroke-linecap:butt;stroke-linejoin:miter;stroke-miterlimit:4;stroke-dasharray:none;stroke-dashoffset:0;stroke-opacity:1;color-rendering:auto;image-rendering:auto;shape-rendering:auto;text-rendering:auto;enable-background:accumulate;stop-color:#000;stop-opacity:1" d="M2191.146 2276.783c-5.972-.035-12.097 2.348-17.36 7.46-6.914 6.712-9.061 12.755-7.849 20.294l.333 2.068-2.067-.336c-15.188-2.46-33.985-1.217-55.371 7.434 6.287 2.695 17.826 7.193 30.63 13.342l4.061 1.951-4.414.895c-16.908 3.427-36.973 13.327-55.299 34.933 8.199-.637 24.954-2.609 42.428-2.582 9.714.015 19.287.687 27.086 2.71 7.8 2.021 14.888 6.649 15.886 10.04.999 3.39.432 5.176-.552 7.828-.984 2.653-4.01 6.682-8.195 9.342-4.185 2.66-9.496 4.985-15.014 6.961-11.035 3.952-22.78 6.477-27.964 6.959-1.103.102-1.543.498-1.967 1.27-.425.77-.66 1.982-.694 3.25-.046 1.692.217 2.576.695 3.246.478.67 1.225.938 1.994.99 32.582 2.205 56.944-5.99 74.638-13.012 20.35-9.33 33.213-27.758 36.005-44.348 1.75-10.394 1.375-15.489-.312-19.828-1.687-4.338-4.922-8.191-9.025-15.548-2.637-4.728-4.108-9.367-5.02-13.688l-.193-.91.726-.582c7.54-6.045 13.681-12.644 15.91-17.45-4.574-4.864-12.478-5.892-21.322-4.947l-.726.076-.512-.521c-4.713-4.8-10.562-7.261-16.535-7.297zm2.649 11.233c2.593-.041 4.88 1.756 5.502 4.322.73 3.021-1.081 6.052-4.047 6.77-2.966.717-5.963-1.15-6.693-4.173-.731-3.021 1.08-6.052 4.047-6.769.39-.094.79-.145 1.19-.15z" transform="matrix(1.97262 0 0 1.97262 -4084.105 -4416.083)"/>
        </g>
    </g>
    <g style="opacity:1;fill:#b2b2b2;fill-opacity:1;stroke-width:.755906;stroke-miterlimit:4;stroke-dasharray:none">
        <g style="fill:#b2b2b2;fill-opacity:1">
            <g style="opacity:1;fill:#b2b2b2;fill-opacity:1">
                <path style="color:#000;font-style:normal;font-variant:normal;font-weight:400;font-stretch:normal;font-size:medium;line-height:normal;font-family:sans-serif;font-variant-ligatures:normal;font-variant-position:normal;font-variant-caps:normal;font-variant-numeric:normal;font-variant-alternates:normal;font-variant-east-asian:normal;font-feature-settings:normal;font-variation-settings:normal;text-indent:0;text-align:start;text-decoration:none;text-decoration-line:none;text-decoration-style:solid;text-decoration-color:#000;letter-spacing:normal;word-spacing:normal;text-transform:none;writing-mode:lr-tb;direction:ltr;text-orientation:mixed;dominant-baseline:auto;baseline-shift:baseline;text-anchor:start;white-space:normal;shape-padding:0;shape-margin:0;inline-size:0;clip-rule:nonzero;display:inline;overflow:visible;visibility:visible;isolation:auto;mix-blend-mode:normal;color-interpolation:sRGB;color-interpolation-filters:linearRGB;solid-color:#000;solid-opacity:1;vector-effect:none;fill:#b2b2b2;fill-opacity:1;fill-rule:nonzero;stroke:none;stroke-width:3.02362;stroke-linecap:butt;stroke-linejoin:miter;stroke-miterlimit:4;stroke-dasharray:none;stroke-dashoffset:0;stroke-opacity:1;color-rendering:auto;image-rendering:auto;shape-rendering:auto;text-rendering:auto;enable-background:accumulate;stop-color:#000;stop-opacity:1" d="M2230.894 2301.174a24.635 24.635 0 0 0-5.978.633c-.14.032-.261.07-.398.103-2.274 2.248-4.813 4.505-7.53 6.717.875 3.86 2.174 7.883 4.471 12.002 3.987 7.15 7.274 10.966 9.203 15.926 1.929 4.96 2.264 10.794.475 21.424-2.219 13.178-10.24 27.132-22.96 37.433 9.872-2.88 18.287-8.191 23.858-14.627 6.013-6.946 8.02-10.876 8.723-14.836.703-3.96.044-8.3.324-15.664.18-4.745 1.191-8.896 2.477-12.545l.308-.875.922-.12c8.228-1.068 15.665-3.168 19.51-5.65-1.235-5.551-6.48-9.86-13.428-13.134l-.662-.313-.166-.713c-2.203-9.46-9.59-15.563-19.149-15.761zm4.784 11.685a4.823 4.914 17.73 0 1 1.447.225 4.823 4.914 17.73 0 1 3.098 6.148 4.823 4.914 17.73 0 1-6.09 3.213 4.823 4.914 17.73 0 1-3.098-6.148 4.823 4.914 17.73 0 1 4.643-3.438z" transform="matrix(1.97262 0 0 1.97262 -4084.105 -4416.083)"/>
            </g>
        </g>
    </g>
</svg>
