<svg width="113" height="85" viewBox="0 0 113 85" fill="none" xmlns="http://www.w3.org/2000/svg">
<g clip-path="url(#clip0_57_974)">
<path d="M30.5376 5H8.21903C6.44121 5 5 6.34315 5 8V14C5 15.6569 6.44121 17 8.21903 17H30.5376C32.3154 17 33.7566 15.6569 33.7566 14V8C33.7566 6.34315 32.3154 5 30.5376 5Z" fill="#C7C7C7"/>
<path fill-rule="evenodd" clip-rule="evenodd" d="M33.7568 11H38.0489C35.6785 11 33.7568 9.20912 33.7568 7V11Z" fill="#C7C7C7"/>
<path d="M50.281 11H8.21903C6.44121 11 5 12.3431 5 14V36C5 37.6569 6.44121 39 8.21903 39H50.281C52.0588 39 53.5 37.6569 53.5 36V14C53.5 12.3431 52.0588 11 50.281 11Z" fill="white"/>
</g>
<g clip-path="url(#clip1_57_974)">
<path d="M85.0376 5H62.719C60.9412 5 59.5 6.34315 59.5 8V14C59.5 15.6569 60.9412 17 62.719 17H85.0376C86.8154 17 88.2566 15.6569 88.2566 14V8C88.2566 6.34315 86.8154 5 85.0376 5Z" fill="#C7C7C7"/>
<path fill-rule="evenodd" clip-rule="evenodd" d="M88.2568 11H92.5489C90.1785 11 88.2568 9.20912 88.2568 7V11Z" fill="#C7C7C7"/>
<path d="M104.781 11H62.719C60.9412 11 59.5 12.3431 59.5 14V36C59.5 37.6569 60.9412 39 62.719 39H104.781C106.559 39 108 37.6569 108 36V14C108 12.3431 106.559 11 104.781 11Z" fill="white"/>
</g>
<g clip-path="url(#clip2_57_974)">
<path d="M30.5376 46H8.21903C6.44121 46 5 47.3431 5 49V55C5 56.6569 6.44121 58 8.21903 58H30.5376C32.3154 58 33.7566 56.6569 33.7566 55V49C33.7566 47.3431 32.3154 46 30.5376 46Z" fill="#C7C7C7"/>
<path fill-rule="evenodd" clip-rule="evenodd" d="M33.7568 52H38.0489C35.6785 52 33.7568 50.2091 33.7568 48V52Z" fill="#C7C7C7"/>
<path d="M50.281 52H8.21903C6.44121 52 5 53.3431 5 55V77C5 78.6569 6.44121 80 8.21903 80H50.281C52.0588 80 53.5 78.6569 53.5 77V55C53.5 53.3431 52.0588 52 50.281 52Z" fill="white"/>
</g>
<g clip-path="url(#clip3_57_974)">
<path d="M85.0376 46H62.719C60.9412 46 59.5 47.3431 59.5 49V55C59.5 56.6569 60.9412 58 62.719 58H85.0376C86.8154 58 88.2566 56.6569 88.2566 55V49C88.2566 47.3431 86.8154 46 85.0376 46Z" fill="#C7C7C7"/>
<path fill-rule="evenodd" clip-rule="evenodd" d="M88.2568 52H92.5489C90.1785 52 88.2568 50.2091 88.2568 48V52Z" fill="#C7C7C7"/>
<path d="M104.781 52H62.719C60.9412 52 59.5 53.3431 59.5 55V77C59.5 78.6569 60.9412 80 62.719 80H104.781C106.559 80 108 78.6569 108 77V55C108 53.3431 106.559 52 104.781 52Z" fill="white"/>
</g>
<defs>
<clipPath id="clip0_57_974">
<rect width="48.5" height="34" fill="white" transform="translate(5 5)"/>
</clipPath>
<clipPath id="clip1_57_974">
<rect width="48.5" height="34" fill="white" transform="translate(59.5 5)"/>
</clipPath>
<clipPath id="clip2_57_974">
<rect width="48.5" height="34" fill="white" transform="translate(5 46)"/>
</clipPath>
<clipPath id="clip3_57_974">
<rect width="48.5" height="34" fill="white" transform="translate(59.5 46)"/>
</clipPath>
</defs>
</svg>
